<svg width="134" height="22" viewBox="0 0 134 22" fill="none" xmlns="http://www.w3.org/2000/svg">
<path d="M76.7983 5.41751C78.485 5.41751 79.8141 5.97667 80.7858 7.09501C81.7575 8.21334 82.2433 9.71667 82.2433 11.605V20.625H78.2283V12.265C78.2283 11.1467 78.0175 10.3125 77.5958 9.76251C77.1925 9.21251 76.5416 8.93751 75.6433 8.93751C74.635 8.93751 73.8283 9.28584 73.2233 9.98251C72.6183 10.6792 72.3158 11.6233 72.3158 12.815V20.625H68.3008V0.412506H72.3158V7.15001C73.5258 5.99501 75.02 5.41751 76.7983 5.41751Z" fill="white"/>
<path d="M100.328 13.145C100.328 13.53 100.3 13.9242 100.245 14.3275H89.0255C89.1905 15.3358 89.5847 16.115 90.208 16.665C90.8496 17.1967 91.6655 17.4625 92.6555 17.4625C93.3338 17.4625 93.948 17.3158 94.498 17.0225C95.048 16.7108 95.4788 16.2892 95.7905 15.7575H100.025C99.4755 17.3708 98.5405 18.6542 97.2205 19.6075C95.9005 20.5608 94.3788 21.0375 92.6555 21.0375C90.4555 21.0375 88.6221 20.2858 87.1555 18.7825C85.6888 17.2792 84.9555 15.4183 84.9555 13.2C84.9555 12.32 85.0746 11.4767 85.313 10.67C85.5696 9.86334 85.9271 9.13917 86.3855 8.49751C86.8621 7.85584 87.4121 7.30584 88.0355 6.84751C88.6588 6.37084 89.3647 6.00417 90.153 5.74751C90.9413 5.49084 91.7755 5.36251 92.6555 5.36251C94.1405 5.36251 95.4697 5.71084 96.643 6.40751C97.8347 7.10417 98.7422 8.04834 99.3655 9.24001C100.007 10.4317 100.328 11.7333 100.328 13.145ZM92.6555 8.77251C91.7572 8.77251 90.9963 9.02001 90.373 9.51501C89.768 10.01 89.3555 10.6975 89.1355 11.5775H96.313C96.1297 10.9725 95.8638 10.4683 95.5155 10.065C95.1672 9.64334 94.7455 9.32251 94.2505 9.10251C93.7738 8.88251 93.2422 8.77251 92.6555 8.77251Z" fill="white"/>
<path d="M103.186 20.625V0.412506H107.201V20.625H103.186Z" fill="white"/>
<path d="M111.055 20.625V0.412506H115.07V20.625H111.055Z" fill="white"/>
<path d="M125.991 21.0375C124.469 21.0375 123.094 20.6983 121.866 20.02C120.638 19.3417 119.675 18.4067 118.978 17.215C118.3 16.005 117.961 14.6667 117.961 13.2C117.961 10.945 118.722 9.07501 120.243 7.59001C121.765 6.10501 123.681 5.36251 125.991 5.36251C128.283 5.36251 130.189 6.10501 131.711 7.59001C133.233 9.07501 133.993 10.945 133.993 13.2C133.993 15.4367 133.223 17.3067 131.683 18.81C130.162 20.295 128.264 21.0375 125.991 21.0375ZM125.991 17.27C127.146 17.27 128.09 16.8942 128.823 16.1425C129.557 15.3725 129.923 14.3917 129.923 13.2C129.923 12.0083 129.557 11.0367 128.823 10.285C128.09 9.51501 127.137 9.13001 125.963 9.13001C124.808 9.13001 123.864 9.51501 123.131 10.285C122.398 11.0367 122.031 12.0083 122.031 13.2C122.031 13.7867 122.123 14.3367 122.306 14.85C122.508 15.3633 122.783 15.7942 123.131 16.1425C123.479 16.4908 123.892 16.7658 124.368 16.9675C124.863 17.1692 125.404 17.27 125.991 17.27Z" fill="white"/>
<path d="M57.6274 14.1312C59.6977 14.1312 61.376 12.4529 61.376 10.3827C61.376 8.31243 59.6977 6.63416 57.6274 6.63416C55.5572 6.63416 53.8789 8.31243 53.8789 10.3827C53.8789 12.4529 55.5572 14.1312 57.6274 14.1312Z" fill="white"/>
<path d="M9.01079 5.36251C11.2658 5.36251 13.1266 6.10501 14.5933 7.59001C16.0783 9.07501 16.8208 10.945 16.8208 13.2C16.8208 15.455 16.0783 17.325 14.5933 18.81C13.1266 20.295 11.2658 21.0375 9.01079 21.0375C7.23245 21.0375 5.68328 20.4875 4.36328 19.3875L3.89578 20.625H0.925781V0.412506H4.94078V6.57251C6.13245 5.76584 7.48912 5.36251 9.01079 5.36251ZM5.79328 16.0875C6.56328 16.8575 7.52578 17.2425 8.68079 17.2425C9.85412 17.2425 10.8166 16.8575 11.5683 16.0875C12.3383 15.3175 12.7233 14.355 12.7233 13.2C12.7233 12.43 12.5491 11.7333 12.2008 11.11C11.8708 10.4867 11.3941 10.0008 10.7708 9.65251C10.1475 9.30417 9.45079 9.13001 8.68079 9.13001C7.92912 9.13001 7.24162 9.30417 6.61828 9.65251C5.99495 10.0008 5.50912 10.4867 5.16078 11.11C4.81245 11.7333 4.63828 12.43 4.63828 13.2C4.63828 14.355 5.02328 15.3175 5.79328 16.0875Z" fill="white"/>
<path d="M26.7653 21.0375C25.2436 21.0375 23.8686 20.6983 22.6403 20.02C21.4119 19.3417 20.4494 18.4067 19.7528 17.215C19.0744 16.005 18.7353 14.6667 18.7353 13.2C18.7353 10.945 19.4961 9.07501 21.0178 7.59001C22.5394 6.10501 24.4553 5.36251 26.7653 5.36251C29.0569 5.36251 30.9636 6.10501 32.4853 7.59001C34.0069 9.07501 34.7678 10.945 34.7678 13.2C34.7678 15.4367 33.9978 17.3067 32.4578 18.81C30.9361 20.295 29.0386 21.0375 26.7653 21.0375ZM26.7653 17.27C27.9203 17.27 28.8644 16.8942 29.5978 16.1425C30.3311 15.3725 30.6978 14.3917 30.6978 13.2C30.6978 12.0083 30.3311 11.0367 29.5978 10.285C28.8644 9.51501 27.9111 9.13001 26.7378 9.13001C25.5828 9.13001 24.6386 9.51501 23.9053 10.285C23.1719 11.0367 22.8053 12.0083 22.8053 13.2C22.8053 13.7867 22.8969 14.3367 23.0803 14.85C23.2819 15.3633 23.5569 15.7942 23.9053 16.1425C24.2536 16.4908 24.6661 16.7658 25.1428 16.9675C25.6378 17.1692 26.1786 17.27 26.7653 17.27Z" fill="white"/>
<path d="M44.7092 17.05H46.5242V20.625H43.6917C42.6101 20.625 41.6659 20.4142 40.8592 19.9925C40.0709 19.5708 39.4659 18.9658 39.0442 18.1775C38.6226 17.3708 38.4117 16.4175 38.4117 15.3175V8.99251H35.7167V8.14001L41.6017 1.89751H42.3442V5.77501H46.4417V8.99251H42.4267V14.795C42.4267 15.51 42.6192 16.0692 43.0042 16.4725C43.4076 16.8575 43.9759 17.05 44.7092 17.05Z" fill="white"/>
</svg>
