<svg width="152" height="24" viewBox="0 0 152 24" fill="none" xmlns="http://www.w3.org/2000/svg">
<path d="M84.8696 5.90995C86.7096 5.90995 88.1596 6.51995 89.2196 7.73995C90.2796 8.95995 90.8096 10.6 90.8096 12.66V22.5H86.4296V13.38C86.4296 12.16 86.1996 11.25 85.7396 10.65C85.2996 10.05 84.5896 9.74995 83.6096 9.74995C82.5096 9.74995 81.6296 10.13 80.9696 10.89C80.3096 11.65 79.9796 12.68 79.9796 13.98V22.5H75.5996V0.449951H79.9796V7.79995C81.2996 6.53995 82.9296 5.90995 84.8696 5.90995Z" fill="white"/>
<path d="M110.538 14.34C110.538 14.76 110.508 15.19 110.448 15.63H98.2084C98.3884 16.73 98.8184 17.58 99.4984 18.18C100.198 18.76 101.088 19.05 102.168 19.05C102.908 19.05 103.578 18.89 104.178 18.57C104.778 18.23 105.248 17.77 105.588 17.19H110.208C109.608 18.95 108.588 20.35 107.148 21.39C105.708 22.43 104.048 22.95 102.168 22.95C99.7684 22.95 97.7684 22.13 96.1684 20.49C94.5684 18.85 93.7684 16.82 93.7684 14.4C93.7684 13.44 93.8984 12.52 94.1584 11.64C94.4384 10.76 94.8284 9.96995 95.3284 9.26995C95.8484 8.56995 96.4484 7.96995 97.1284 7.46995C97.8084 6.94995 98.5784 6.54995 99.4384 6.26995C100.298 5.98995 101.208 5.84995 102.168 5.84995C103.788 5.84995 105.238 6.22995 106.518 6.98995C107.818 7.74995 108.808 8.77995 109.488 10.08C110.188 11.38 110.538 12.8 110.538 14.34ZM102.168 9.56995C101.188 9.56995 100.358 9.83995 99.6784 10.38C99.0184 10.92 98.5684 11.67 98.3284 12.63H106.158C105.958 11.97 105.668 11.42 105.288 10.98C104.908 10.52 104.448 10.17 103.908 9.92995C103.388 9.68995 102.808 9.56995 102.168 9.56995Z" fill="white"/>
<path d="M113.656 22.5V0.449951H118.036V22.5H113.656Z" fill="white"/>
<path d="M122.24 22.5V0.449951H126.62V22.5H122.24Z" fill="white"/>
<path d="M138.534 22.95C136.874 22.95 135.374 22.58 134.034 21.84C132.694 21.1 131.644 20.08 130.884 18.78C130.144 17.46 129.774 16 129.774 14.4C129.774 11.94 130.604 9.89995 132.264 8.27995C133.924 6.65995 136.014 5.84995 138.534 5.84995C141.034 5.84995 143.114 6.65995 144.774 8.27995C146.434 9.89995 147.264 11.94 147.264 14.4C147.264 16.84 146.424 18.88 144.744 20.52C143.084 22.14 141.014 22.95 138.534 22.95ZM138.534 18.84C139.794 18.84 140.824 18.43 141.624 17.61C142.424 16.77 142.824 15.7 142.824 14.4C142.824 13.1 142.424 12.04 141.624 11.22C140.824 10.38 139.784 9.95995 138.504 9.95995C137.244 9.95995 136.214 10.38 135.414 11.22C134.614 12.04 134.214 13.1 134.214 14.4C134.214 15.04 134.314 15.64 134.514 16.2C134.734 16.76 135.034 17.23 135.414 17.61C135.794 17.99 136.244 18.29 136.764 18.51C137.304 18.7299 137.894 18.84 138.534 18.84Z" fill="white"/>
<path d="M63.9565 15.4159C66.215 15.4159 68.0458 13.5851 68.0458 11.3266C68.0458 9.06815 66.215 7.2373 63.9565 7.2373C61.698 7.2373 59.8672 9.06815 59.8672 11.3266C59.8672 13.5851 61.698 15.4159 63.9565 15.4159Z" fill="white"/>
<path d="M10.9196 5.84995C13.3796 5.84995 15.4096 6.65995 17.0096 8.27995C18.6296 9.89995 19.4396 11.94 19.4396 14.4C19.4396 16.86 18.6296 18.9 17.0096 20.52C15.4096 22.14 13.3796 22.95 10.9196 22.95C8.97961 22.95 7.28961 22.35 5.84961 21.15L5.33961 22.5H2.09961V0.449951H6.47961V7.16995C7.77961 6.28995 9.25961 5.84995 10.9196 5.84995ZM7.40961 17.55C8.24961 18.39 9.29961 18.81 10.5596 18.81C11.8396 18.81 12.8896 18.39 13.7096 17.55C14.5496 16.71 14.9696 15.66 14.9696 14.4C14.9696 13.56 14.7796 12.8 14.3996 12.12C14.0396 11.44 13.5196 10.91 12.8396 10.53C12.1596 10.15 11.3996 9.95995 10.5596 9.95995C9.73961 9.95995 8.98961 10.15 8.30961 10.53C7.62961 10.91 7.09961 11.44 6.71961 12.12C6.33961 12.8 6.14961 13.56 6.14961 14.4C6.14961 15.66 6.56961 16.71 7.40961 17.55Z" fill="white"/>
<path d="M30.2881 22.95C28.6281 22.95 27.1281 22.58 25.7881 21.84C24.4481 21.1 23.3981 20.08 22.6381 18.78C21.8981 17.46 21.5281 16 21.5281 14.4C21.5281 11.94 22.3581 9.89995 24.0181 8.27995C25.6781 6.65995 27.7681 5.84995 30.2881 5.84995C32.7881 5.84995 34.8681 6.65995 36.5281 8.27995C38.1881 9.89995 39.0181 11.94 39.0181 14.4C39.0181 16.84 38.1781 18.88 36.4981 20.52C34.8381 22.14 32.7681 22.95 30.2881 22.95ZM30.2881 18.84C31.5481 18.84 32.5781 18.43 33.3781 17.61C34.1781 16.77 34.5781 15.7 34.5781 14.4C34.5781 13.1 34.1781 12.04 33.3781 11.22C32.5781 10.38 31.5381 9.95995 30.2581 9.95995C28.9981 9.95995 27.9681 10.38 27.1681 11.22C26.3681 12.04 25.9681 13.1 25.9681 14.4C25.9681 15.04 26.0681 15.64 26.2681 16.2C26.4881 16.76 26.7881 17.23 27.1681 17.61C27.5481 17.99 27.9981 18.29 28.5181 18.51C29.0581 18.7299 29.6481 18.84 30.2881 18.84Z" fill="white"/>
<path d="M49.8634 18.6H51.8434V22.5H48.7534C47.5734 22.5 46.5434 22.27 45.6634 21.81C44.8034 21.35 44.1434 20.69 43.6834 19.83C43.2234 18.95 42.9934 17.91 42.9934 16.71V9.80995H40.0534V8.87995L46.4734 2.06995H47.2834V6.29995H51.7534V9.80995H47.3734V16.14C47.3734 16.92 47.5834 17.53 48.0034 17.97C48.4434 18.39 49.0634 18.6 49.8634 18.6Z" fill="white"/>
</svg>
